<?xml version="1.0" standalone="no"?>
<!DOCTYPE svg PUBLIC "-//W3C//DTD SVG 20010904//EN"
 "http://www.w3.org/TR/2001/REC-SVG-20010904/DTD/svg10.dtd">
<svg version="1.0" xmlns="http://www.w3.org/2000/svg"
 width="1024.000000pt" height="1024.000000pt" viewBox="0 0 1024.000000 1024.000000"
 preserveAspectRatio="xMidYMid meet">
<metadata>
Created by potrace 1.14, written by Peter Selinger 2001-2017
</metadata>
<g transform="translate(0.000000,1024.000000) scale(0.100000,-0.100000)"
fill="#000000" stroke="none">
<path d="M1236 7585 c-51 -18 -84 -51 -97 -97 -22 -85 20 -159 108 -189 103
-35 242 -101 348 -165 131 -79 130 -79 135 -84 3 -3 37 -30 75 -61 145 -117
276 -263 352 -393 65 -111 143 -304 159 -390 3 -16 7 -33 10 -38 3 -4 7 -22 9
-40 2 -18 7 -46 10 -63 4 -16 8 -113 10 -215 2 -141 -2 -214 -16 -310 -18
-120 -63 -315 -95 -410 -9 -25 -17 -52 -19 -60 -6 -23 -90 -239 -115 -295 -13
-27 -38 -84 -57 -125 -19 -41 -38 -82 -43 -90 -5 -8 -19 -35 -31 -60 -12 -25
-35 -68 -51 -97 l-29 -52 -44 14 c-24 7 -46 11 -49 8 -2 -3 -13 0 -23 5 -10 5
-34 12 -53 15 -19 3 -46 8 -60 11 -14 3 -45 8 -70 11 -25 3 -52 7 -60 10 -46
12 -156 19 -315 19 -181 1 -295 -8 -327 -25 -10 -6 -18 -8 -18 -5 0 10 -168
-48 -220 -75 -75 -39 -83 -46 -148 -109 -158 -155 -320 -379 -358 -495 -2 -5
-15 -42 -29 -81 -82 -236 -35 -511 117 -679 25 -28 100 -61 153 -68 11 -1 25
-5 30 -8 15 -7 152 -4 205 5 90 16 79 13 155 42 11 4 25 8 30 9 15 4 134 62
180 88 222 125 513 375 770 663 44 49 83 91 86 94 3 3 40 48 83 100 43 52 80
96 81 98 5 6 125 -30 131 -39 3 -5 13 -9 22 -9 25 0 281 -101 430 -171 35 -16
65 -29 68 -29 3 0 88 -41 187 -91 265 -132 442 -196 677 -244 135 -28 125 -23
177 -98 60 -89 157 -189 248 -255 39 -29 75 -55 80 -59 6 -5 21 -14 35 -20 14
-7 48 -25 75 -41 93 -53 344 -151 427 -166 13 -3 23 -5 23 -6 0 -1 7 -3 15 -5
8 -1 33 -8 56 -14 88 -24 295 -61 424 -76 30 -3 71 -8 90 -10 179 -22 314 -22
549 0 31 3 79 7 106 10 89 8 158 15 245 25 47 6 105 12 129 15 23 3 55 7 70 9
14 3 46 7 71 10 25 3 59 8 75 11 17 3 44 7 60 10 17 3 41 8 55 11 14 3 41 7
60 9 19 2 73 12 120 23 47 10 92 18 100 16 8 -1 62 -12 120 -23 58 -12 120
-24 139 -26 18 -2 52 -7 75 -11 22 -3 66 -7 97 -8 31 -2 60 -5 65 -8 12 -7
618 -2 709 6 39 3 104 8 145 11 41 2 75 5 75 5 0 2 116 21 130 21 2 0 19 5 37
10 18 5 47 12 63 15 17 2 39 8 50 11 11 3 29 8 40 9 11 2 45 11 75 19 30 9 66
18 80 21 14 2 36 9 50 14 14 5 52 16 85 25 65 17 211 62 235 72 8 3 20 7 25 9
45 11 220 76 231 85 8 6 14 9 14 6 0 -3 24 4 53 17 52 23 88 38 97 41 3 1 32
15 65 30 33 16 62 29 65 30 8 2 140 72 200 106 149 85 318 218 305 240 -3 4
-1 10 4 13 15 10 6 80 -15 116 -31 54 -67 74 -130 74 -38 0 -58 -4 -64 -14 -6
-8 -10 -12 -10 -8 0 6 -103 -67 -157 -112 -7 -6 -15 -10 -19 -10 -3 0 -18 -8
-32 -19 -15 -10 -63 -37 -107 -61 -44 -23 -86 -47 -94 -53 -8 -7 -16 -11 -17
-10 -2 2 -28 -8 -56 -20 -29 -13 -96 -41 -148 -61 -52 -21 -108 -44 -125 -51
-43 -19 -328 -113 -356 -119 -13 -2 -36 -9 -52 -15 -15 -6 -38 -13 -50 -15
-12 -2 -74 -18 -137 -35 -64 -16 -129 -32 -145 -35 -17 -3 -45 -10 -64 -16
-19 -5 -37 -8 -39 -5 -3 2 -12 0 -22 -5 -18 -10 -70 -17 -170 -25 -36 -3 -94
-7 -130 -10 -107 -9 -480 -17 -480 -11 0 3 26 18 58 34 31 15 76 40 99 55 24
15 45 27 48 27 3 0 11 5 18 10 7 6 57 42 112 81 54 38 111 80 125 92 14 12 48
40 75 62 127 101 294 270 416 422 35 44 99 133 99 138 0 3 9 15 20 27 11 12
20 28 20 35 0 7 5 13 10 13 6 0 10 4 10 10 0 5 13 32 30 59 16 28 39 74 52
103 12 29 24 55 27 58 4 3 8 12 10 20 2 8 17 53 32 98 68 198 81 365 39 486
-13 37 -41 96 -63 130 -41 65 -170 196 -193 196 -8 0 -14 4 -14 9 0 5 -8 11
-17 14 -10 3 -29 12 -43 20 -14 8 -37 20 -52 26 -16 6 -38 15 -50 20 -27 11
-98 28 -148 37 -95 16 -145 19 -255 18 -135 -1 -226 -10 -350 -35 -27 -5 -59
-11 -71 -13 -37 -7 -177 -58 -243 -89 -36 -16 -72 -31 -79 -33 -8 -1 -21 -8
-30 -16 -10 -7 -44 -26 -77 -43 -33 -16 -62 -32 -65 -35 -3 -3 -36 -26 -75
-49 -38 -24 -72 -47 -75 -50 -3 -4 -18 -15 -35 -25 -16 -11 -55 -40 -85 -65
-30 -25 -65 -55 -79 -66 -79 -66 -224 -220 -304 -325 -31 -41 -61 -80 -66 -86
-6 -7 -7 -15 -4 -18 4 -3 2 -6 -4 -6 -9 0 -60 -79 -119 -185 -17 -29 -74 -146
-84 -170 -4 -11 -15 -38 -24 -60 -8 -22 -18 -51 -21 -65 -2 -14 -9 -44 -15
-66 -29 -123 -28 -270 5 -399 34 -132 92 -233 196 -337 31 -32 55 -59 53 -59
-2 -1 -7 -2 -11 -3 -9 -2 -106 -15 -163 -22 -19 -2 -51 -6 -70 -9 -55 -7 -120
-15 -180 -21 -30 -3 -71 -7 -90 -9 -19 -2 -75 -7 -125 -10 -49 -4 -110 -8
-135 -10 -63 -6 -216 -6 -270 0 -25 2 -67 7 -95 9 -57 6 -72 8 -290 41 -16 3
-41 7 -55 10 -14 4 -36 8 -50 11 -14 3 -33 7 -42 10 -9 3 -25 6 -35 9 -11 2
-44 10 -74 19 -30 9 -54 16 -54 16 0 -1 -7 1 -15 4 -55 19 -136 47 -144 49
-25 6 -213 101 -228 114 -10 9 -18 12 -18 7 0 -5 -4 -4 -8 2 -4 6 -31 27 -61
47 -29 21 -49 37 -45 38 5 1 56 2 114 4 124 3 251 12 301 20 20 3 51 7 70 10
30 3 97 15 164 29 99 21 317 89 395 123 8 3 17 7 20 8 88 30 408 203 448 242
7 7 18 13 23 13 12 0 114 102 155 155 93 123 199 332 235 465 28 102 31 121
34 225 2 55 -2 125 -9 155 -25 121 -106 244 -205 313 -25 17 -48 32 -51 33 -3
0 -30 12 -60 26 -109 49 -214 67 -395 67 -133 0 -130 0 -337 -24 -107 -13
-343 -80 -468 -133 -91 -38 -265 -126 -280 -142 -3 -3 -31 -22 -62 -42 -254
-166 -514 -489 -588 -728 -37 -123 -44 -169 -44 -317 l0 -122 -31 6 c-16 2
-37 7 -45 10 -8 3 -24 8 -34 10 -11 2 -65 19 -120 39 -56 19 -105 36 -111 38
-5 1 -104 48 -219 104 -270 133 -619 280 -773 328 -18 5 -16 29 2 44 8 7 15
16 15 21 0 5 28 66 63 136 70 142 160 356 202 478 15 44 30 87 33 95 3 8 7 21
9 28 1 6 5 18 6 25 2 6 6 19 9 27 3 8 13 47 22 85 9 39 21 84 25 100 10 33 23
98 26 130 1 11 6 40 10 65 29 178 34 474 10 600 -3 13 -7 42 -10 65 -4 22 -15
76 -26 120 -25 99 -25 97 -32 115 -3 8 -15 42 -27 75 -28 77 -120 269 -131
273 -5 2 -9 9 -9 15 0 12 -83 130 -142 202 -46 57 -268 275 -280 275 -5 0 -15
6 -22 13 -33 31 -67 57 -76 57 -5 0 -17 9 -27 19 -41 44 -404 233 -472 246 -9
2 -17 4 -18 5 -2 2 -6 3 -10 5 -5 1 -15 5 -23 8 -32 14 -67 14 -104 2z m6985
-2570 c145 -32 248 -101 303 -200 38 -67 39 -132 5 -271 -15 -65 -88 -244
-107 -266 -8 -10 -11 -18 -7 -18 4 0 1 -8 -7 -17 -8 -10 -18 -25 -21 -33 -9
-24 -127 -192 -177 -251 -61 -74 -264 -276 -325 -324 -27 -22 -52 -42 -55 -45
-37 -41 -350 -250 -374 -250 -9 0 -16 -4 -16 -10 0 -5 -9 -10 -20 -10 -11 0
-20 -4 -20 -10 0 -5 -5 -10 -12 -10 -10 0 -62 -19 -153 -55 -11 -5 -22 -9 -25
-10 -3 -1 -45 -14 -95 -30 -49 -16 -94 -30 -100 -31 -5 -1 -48 -12 -94 -24
-83 -21 -103 -21 -158 2 -15 6 -30 12 -33 13 -20 5 -106 51 -108 57 -2 4 -10
8 -18 8 -8 0 -14 5 -14 10 0 6 -6 10 -13 10 -23 0 -124 110 -155 168 -42 80
-55 148 -49 245 9 137 27 197 103 344 134 259 289 446 545 658 20 17 146 103
224 153 11 7 75 39 142 72 131 64 245 106 315 116 24 3 54 8 68 10 14 2 57 7
95 10 39 4 71 7 72 9 11 8 227 -7 284 -20z m-2709 -101 c134 -32 207 -86 227
-169 13 -55 4 -183 -18 -255 -27 -87 -93 -231 -127 -277 -13 -17 -24 -34 -24
-38 0 -3 -19 -30 -42 -60 -63 -79 -251 -196 -472 -295 -54 -24 -313 -110 -324
-108 -4 1 -25 -3 -47 -10 -22 -6 -53 -13 -70 -15 -16 -3 -46 -7 -65 -11 -124
-21 -242 -29 -400 -29 -137 0 -269 9 -279 18 -3 4 -7 11 -7 16 -1 5 -2 10 -3
12 -9 10 -14 69 -14 162 -1 127 23 231 73 315 16 28 30 53 30 56 0 3 31 47 69
98 68 91 212 236 276 279 124 84 160 106 245 148 137 67 316 128 430 145 19 3
42 7 50 9 8 2 42 7 75 11 33 3 61 7 63 8 10 11 303 2 354 -10z m-4062 -778
c19 -4 46 -8 60 -10 71 -11 166 -29 177 -35 12 -6 9 -11 -100 -136 -58 -67
-346 -357 -392 -395 -16 -14 -59 -48 -95 -77 -36 -29 -69 -57 -75 -61 -5 -4
-46 -32 -89 -61 -149 -101 -334 -173 -422 -166 -16 2 -39 3 -51 4 -33 2 -71
93 -77 185 -7 118 41 259 137 398 59 86 77 107 167 200 66 67 132 111 185 123
6 2 28 7 50 13 22 6 60 14 85 17 25 4 47 8 49 10 6 6 352 -2 391 -9z"/>
</g>
</svg>
